<?xml version="1.0" standalone="no"?>
<!DOCTYPE svg PUBLIC "-//W3C//DTD SVG 20010904//EN"
 "http://www.w3.org/TR/2001/REC-SVG-20010904/DTD/svg10.dtd">
<svg version="1.0" xmlns="http://www.w3.org/2000/svg"
 width="398.000000pt" height="398.000000pt" viewBox="0 0 398.000000 398.000000"
 preserveAspectRatio="xMidYMid meet">
<metadata>
Created by potrace 1.16, written by Peter Selinger 2001-2019
</metadata>
<g transform="translate(0.000000,398.000000) scale(0.100000,-0.100000)"
fill="#000000" stroke="none">
<path d="M0 1990 l0 -1990 1990 0 1990 0 0 1990 0 1990 -1990 0 -1990 0 0
-1990z m1192 1923 c27 -31 58 -101 58 -130 0 -24 -9 -32 -61 -58 -33 -16 -65
-36 -71 -42 -12 -15 -38 -17 -38 -4 0 5 5 22 10 37 7 18 7 37 1 58 -6 17 -13
48 -16 68 -6 34 -3 39 32 62 44 31 64 32 85 9z m-926 -45 c8 -37 13 -44 38
-48 42 -7 43 -26 2 -41 -32 -12 -35 -16 -38 -58 l-3 -45 -36 32 c-20 17 -38
30 -40 28 -2 -2 -21 -6 -41 -10 -44 -8 -48 2 -17 43 21 28 21 30 3 60 -22 38
-15 47 28 32 30 -11 34 -9 56 19 13 16 27 30 31 30 5 0 12 -19 17 -42z m310
21 c17 -19 17 -23 3 -47 -18 -33 -54 -40 -80 -16 -23 21 -24 42 -2 66 21 24
55 23 79 -3z m2643 -25 c28 -25 51 -52 51 -60 0 -23 -77 -96 -97 -92 -12 2
-28 28 -47 75 -25 61 -28 76 -18 98 18 38 52 32 111 -21z m-753 14 c38 -11 81
-20 97 -19 l27 1 -31 -62 c-17 -35 -33 -64 -34 -66 -2 -3 -133 -32 -142 -32
-2 0 -3 11 -3 24 0 13 -9 54 -20 90 -12 37 -18 71 -15 76 10 15 47 12 121 -12z
m-667 -85 c17 -21 31 -43 31 -50 0 -7 -21 -24 -47 -37 -27 -13 -57 -33 -67
-45 -48 -53 -115 0 -95 74 9 33 45 78 69 88 44 16 79 7 109 -30z m-1023 -69
c25 -3 47 -11 50 -16 9 -14 -87 -108 -110 -108 -22 0 -116 94 -116 116 0 8 14
23 30 33 30 18 32 18 67 0 19 -10 55 -21 79 -25z m2110 -42 l-7 -58 40 -22
c22 -13 43 -27 46 -32 3 -5 -19 -14 -48 -20 l-53 -12 -13 -60 c-15 -73 -32
-74 -69 -5 l-26 47 -63 0 c-35 0 -63 4 -63 10 0 5 18 26 40 47 l40 38 -14 47
c-8 26 -12 50 -7 52 4 3 26 -6 49 -19 l42 -24 41 35 c61 51 73 47 65 -24z
m919 -38 c18 -7 45 -55 45 -79 0 -32 -33 -86 -61 -100 -23 -12 -119 -22 -119
-12 0 1 11 24 25 51 14 27 28 71 31 97 6 45 9 49 34 49 16 0 36 -3 45 -6z
m-565 -148 c12 -41 20 -81 17 -89 -9 -25 -49 -46 -98 -53 l-44 -6 -1 58 c0 33
-4 76 -8 97 -7 36 -5 38 26 52 18 8 45 14 59 15 23 0 28 -7 49 -74z m-2138 9
c15 -22 27 -47 28 -55 0 -13 -105 -90 -123 -90 -12 0 -8 130 4 153 26 49 53
47 91 -8z m-750 30 c3 -3 0 -24 -6 -46 -8 -33 -7 -49 8 -90 17 -49 17 -51 -1
-65 -58 -45 -76 -42 -103 18 -33 73 -22 154 24 176 23 11 69 15 78 7z m1615
-77 c-3 -7 -5 -2 -5 12 0 14 2 19 5 13 2 -7 2 -19 0 -25z m-440 -14 c-3 -3
-12 -4 -19 -1 -8 3 -5 6 6 6 11 1 17 -2 13 -5z m-750 -50 c-3 -3 -12 -4 -19
-1 -8 3 -5 6 6 6 11 1 17 -2 13 -5z m891 -65 c-3 -8 -7 -3 -11 10 -4 17 -3 21
5 13 5 -5 8 -16 6 -23z m1122 -37 c0 -16 12 -39 31 -58 l31 -32 -29 -26 c-34
-31 -37 -32 -80 -4 -29 17 -63 68 -63 93 0 9 94 64 102 59 4 -3 8 -17 8 -32z
m954 -5 c8 -30 5 -44 -15 -84 -33 -63 -66 -69 -110 -22 -33 35 -35 62 -4 67
11 2 37 22 58 44 21 21 43 38 50 35 7 -2 16 -20 21 -40z m-1306 17 c12 -8 22
-20 22 -26 0 -20 -42 -68 -59 -68 -21 0 -101 57 -101 72 0 35 97 51 138 22z
m-1618 2 c0 -2 -8 -10 -17 -17 -16 -13 -17 -12 -4 4 13 16 21 21 21 13z m708
-31 c-3 -3 -9 2 -12 12 -6 14 -5 15 5 6 7 -7 10 -15 7 -18z m-385 -46 l35 -40
52 26 c75 38 85 32 55 -33 -32 -68 -31 -74 5 -115 45 -52 40 -61 -29 -53 l-59
7 -32 -46 c-44 -64 -60 -60 -60 14 l0 60 -55 12 c-31 7 -55 18 -55 25 0 7 19
23 43 36 41 23 42 25 44 78 1 30 2 58 2 63 2 17 22 5 54 -34z m-629 -65 c24
-9 21 -89 -5 -130 -28 -47 -68 -47 -103 -1 -33 43 -33 53 2 60 16 4 36 20 50
42 23 36 29 39 56 29z m2849 -18 c9 -7 17 -20 17 -27 0 -19 -119 -165 -132
-161 -5 1 -21 14 -36 27 -15 14 -35 28 -44 31 -18 5 -26 34 -10 34 5 0 37 25
72 55 66 57 98 67 133 41z m-645 -182 c6 -77 -61 -98 -98 -30 -13 26 -12 28
16 51 17 15 39 24 54 22 22 -2 25 -8 28 -43z m-1900 -10 c16 -11 22 -25 22
-54 0 -87 -97 -110 -138 -33 -17 31 -15 47 9 77 24 30 72 35 107 10z m2241
-40 c27 -35 26 -55 -4 -88 -45 -49 -115 -19 -115 49 0 63 80 89 119 39z m551
-39 c13 -14 21 -25 18 -25 -2 0 -15 11 -28 25 -13 14 -21 25 -18 25 2 0 15
-11 28 -25z m-2343 -52 c24 -52 25 -59 12 -82 -13 -24 -111 -91 -132 -91 -5 0
-6 18 -2 39 4 27 2 49 -10 70 -9 18 -13 36 -9 42 8 13 97 78 107 79 4 0 20
-26 34 -57z m-1002 -44 c19 -17 35 -35 35 -41 0 -33 -86 -108 -125 -108 -32 0
-8 140 28 165 27 19 20 20 62 -16z m1859 -14 c12 -13 37 -65 56 -116 19 -51
36 -96 38 -100 1 -3 -16 -9 -39 -13 -52 -8 -79 -22 -79 -41 0 -18 8 -18 82 -3
62 13 66 11 98 -44 9 -15 7 -17 -19 -12 -62 13 -161 -60 -161 -118 0 -22 43
-55 91 -70 52 -15 108 2 158 48 39 34 58 79 37 88 -6 2 -3 5 7 5 24 1 34 -27
51 -146 14 -97 13 -104 -8 -180 -12 -43 -28 -89 -36 -102 -20 -39 -97 -117
-190 -195 l-85 -71 -98 -3 c-114 -4 -107 -7 -243 109 -108 93 -155 158 -184
256 -20 70 -20 76 -5 148 8 41 15 90 15 108 0 19 7 40 15 47 12 10 15 9 15 -7
0 -42 104 -113 165 -113 31 0 82 22 113 49 21 19 22 22 9 54 -18 41 -57 73
-109 89 -34 10 -46 9 -91 -10 -29 -12 -56 -22 -60 -22 -4 0 6 20 23 45 41 60
65 65 203 39 30 -5 37 -4 37 9 0 25 -39 40 -118 46 l-72 6 50 102 c67 137 74
141 207 140 97 0 109 -2 127 -22z m1226 -91 c-12 -43 -24 -84 -27 -91 -3 -7 2
-13 11 -13 9 0 43 35 77 78 59 74 79 93 79 75 0 -4 -27 -46 -60 -93 -56 -80
-71 -110 -52 -110 4 0 41 29 81 65 41 36 76 63 79 60 3 -2 -27 -39 -67 -81
-39 -42 -71 -80 -71 -85 0 -14 25 -11 81 11 76 30 71 16 -9 -24 -38 -19 -72
-41 -75 -49 -3 -8 -31 -36 -62 -62 l-57 -49 -41 23 c-52 28 -87 100 -87 176 0
28 -7 63 -15 79 -9 16 -13 31 -10 34 8 9 36 -21 50 -54 8 -19 30 -48 49 -65
20 -17 39 -42 42 -55 3 -13 11 -24 16 -24 16 0 -1 52 -24 78 l-21 22 20 23
c25 26 55 86 73 142 33 105 50 96 20 -11z m-2720 -54 c18 -44 45 -98 62 -121
l29 -40 -21 -26 c-21 -27 -27 -73 -10 -73 6 0 10 11 10 25 0 15 15 39 38 62
21 21 44 52 51 70 14 35 38 60 48 50 3 -4 0 -13 -6 -21 -7 -9 -15 -44 -17 -78
-8 -102 -30 -159 -76 -191 -39 -27 -40 -28 -66 -11 -15 10 -49 39 -77 65 -27
26 -80 62 -118 79 -37 18 -66 34 -64 36 2 2 30 -5 63 -16 105 -37 109 -24 20
64 -43 42 -76 79 -73 82 3 4 40 -22 82 -57 45 -37 79 -59 85 -53 5 5 -18 44
-57 96 -35 48 -63 93 -61 99 2 6 34 -26 72 -70 37 -45 74 -81 82 -81 17 0 18
-8 -7 70 -11 36 -24 77 -29 93 -5 15 -5 27 0 27 4 0 22 -36 40 -80z m2287 29
c15 -6 38 -20 50 -31 l23 -21 -48 -51 c-26 -28 -52 -52 -58 -54 -7 -2 -19 18
-28 44 -9 26 -23 55 -32 65 -28 31 -10 50 53 58 6 0 24 -4 40 -10z m939 -10
c10 -12 29 -25 42 -30 12 -5 22 -15 22 -24 0 -17 -76 -75 -99 -75 -15 0 -65
67 -73 97 -3 14 48 51 73 52 9 1 24 -9 35 -20z m-2772 -198 c35 -37 40 -37
102 -11 26 11 49 18 52 15 3 -3 -6 -31 -20 -63 l-25 -58 39 -45 c56 -65 52
-73 -30 -65 l-69 7 -35 -51 -36 -52 -16 25 c-9 13 -17 43 -19 66 -2 41 -3 42
-54 58 -29 9 -53 22 -53 29 0 6 23 21 51 33 l51 22 -7 59 c-10 90 6 97 69 31z
m2732 -78 c29 -21 54 -45 54 -53 0 -14 -68 -90 -81 -90 -4 0 -24 16 -45 35
-22 19 -54 37 -71 41 -18 3 -33 10 -33 14 0 14 89 90 106 90 8 0 40 -17 70
-37z m-2056 6 c-24 -44 14 -94 62 -81 25 6 41 39 33 69 -8 32 11 27 39 -11
l21 -28 -28 -24 c-52 -45 -124 -44 -171 3 -32 32 -32 34 0 67 33 33 60 36 44
5z m556 -2 c33 -29 26 -60 -19 -88 -38 -23 -87 -25 -126 -5 -47 25 -53 38 -31
74 24 40 44 42 36 5 -7 -32 0 -45 30 -61 46 -24 97 43 63 84 -20 24 16 17 47
-9z m-506 -2 c0 -8 -7 -15 -15 -15 -8 0 -15 7 -15 15 0 8 7 15 15 15 8 0 15
-7 15 -15z m420 0 c0 -8 -7 -15 -15 -15 -8 0 -15 7 -15 15 0 8 7 15 15 15 8 0
15 -7 15 -15z m756 -46 c19 -11 34 -28 34 -36 0 -22 -93 -113 -116 -113 -19 0
-64 59 -64 82 1 13 88 87 104 88 5 0 24 -9 42 -21z m124 -23 c0 -3 -4 -8 -10
-11 -5 -3 -10 -1 -10 4 0 6 5 11 10 11 6 0 10 -2 10 -4z m-2230 -46 c0 -5 -2
-10 -4 -10 -3 0 -8 5 -11 10 -3 6 -1 10 4 10 6 0 11 -4 11 -10z m-694 -31 c3
-6 15 -50 25 -97 43 -199 145 -442 248 -597 28 -41 51 -79 51 -83 0 -12 85
-93 91 -87 3 3 16 -7 30 -23 l24 -27 -27 24 c-16 14 -28 20 -28 15 -1 -18 255
-253 262 -241 6 9 8 9 8 0 0 -7 4 -13 9 -13 5 0 65 -35 133 -77 67 -42 159
-96 203 -120 50 -26 79 -48 79 -58 -1 -9 6 -15 20 -15 11 0 66 -15 121 -34 55
-19 154 -47 220 -62 111 -25 138 -28 355 -29 129 -1 240 1 245 5 6 4 62 19
125 34 63 14 155 39 204 56 50 16 98 30 108 30 10 0 15 5 12 14 -5 13 24 28
80 41 15 3 30 14 33 23 2 9 34 34 71 55 37 20 108 63 158 95 49 32 94 57 100
55 10 -3 111 94 116 112 2 6 7 9 11 7 13 -4 97 89 90 101 -3 7 -2 9 2 4 9 -8
115 90 115 106 0 4 17 34 38 65 65 96 129 213 167 302 39 92 99 279 110 347 7
43 29 63 39 36 9 -21 -48 -246 -88 -352 -45 -115 -106 -237 -170 -336 -49 -76
-62 -104 -43 -97 5 1 6 -2 3 -7 -8 -12 18 -33 29 -23 5 4 5 2 2 -4 -7 -12 110
-170 123 -167 4 1 7 -5 6 -15 0 -9 5 -16 12 -14 8 1 11 -2 7 -8 -9 -14 14 -42
28 -33 6 3 7 1 3 -6 -10 -15 13 -43 27 -34 6 3 7 1 3 -6 -9 -13 12 -44 24 -36
4 3 14 -3 21 -13 13 -15 12 -16 -3 -3 -25 19 -22 2 3 -25 19 -20 19 -24 6 -50
-19 -36 -79 -94 -177 -169 -89 -69 -151 -135 -142 -149 3 -6 -6 -3 -21 7 -15
10 -33 15 -40 11 -7 -4 -9 -4 -5 1 4 4 -23 40 -60 79 -37 39 -91 104 -121 144
-30 39 -55 72 -56 72 -2 0 42 -90 96 -200 54 -110 99 -201 99 -203 0 -2 -21
-19 -47 -37 -27 -19 -59 -45 -73 -57 -14 -13 -28 -23 -32 -23 -4 0 -19 -11
-33 -24 -30 -28 -142 -88 -201 -109 -22 -7 -50 -10 -60 -6 -25 9 -62 57 -106
137 -19 34 -38 59 -43 54 -4 -4 -5 -2 -1 5 3 7 0 27 -8 45 -10 24 -15 28 -15
13 -1 -23 35 -250 44 -282 6 -17 1 -25 -24 -38 -19 -9 -29 -20 -25 -27 4 -6 3
-8 -4 -4 -12 7 -304 -38 -346 -54 -15 -5 -33 -10 -40 -10 -18 0 -54 86 -80
194 l-22 90 0 -120 c0 -67 -5 -137 -12 -161 -12 -39 -16 -43 -70 -58 -45 -14
-82 -16 -172 -12 -103 5 -280 24 -286 30 -2 1 0 95 4 208 4 113 5 215 3 225
-2 10 -14 -31 -26 -92 -39 -185 -81 -304 -108 -304 -8 0 -33 7 -58 15 -24 8
-96 21 -159 30 -104 15 -144 25 -204 50 -15 6 -17 5 -11 -5 5 -8 4 -11 -2 -7
-7 4 -5 31 4 79 8 40 12 83 10 96 -2 12 -1 22 2 22 9 0 44 221 36 228 -3 3 -5
-4 -5 -15 0 -11 -7 -37 -15 -57 -9 -20 -13 -42 -9 -48 4 -6 3 -8 -3 -5 -6 4
-17 -8 -24 -26 -40 -98 -118 -197 -157 -197 -31 0 -155 58 -219 103 -79 56
-198 148 -201 157 -2 4 21 54 51 111 67 131 107 225 100 233 -4 3 -2 6 4 6 6
0 25 28 42 63 17 34 23 51 14 37 -71 -99 -140 -188 -174 -225 -23 -24 -38 -48
-35 -53 3 -5 -4 -18 -17 -28 -18 -16 -19 -16 -8 -1 21 27 2 20 -36 -13 -18
-16 -37 -30 -42 -30 -5 0 -26 19 -48 43 -22 24 -69 65 -104 92 -35 27 -76 60
-91 73 -16 14 -31 21 -39 17 -7 -5 -10 -4 -5 3 6 10 -10 26 -26 27 -3 0 -10 4
-15 9 -5 5 -3 6 5 2 17 -10 15 -3 -8 37 l-20 34 40 50 c40 51 50 70 28 57 -7
-4 -8 -3 -4 5 4 6 11 9 16 6 11 -7 162 204 154 216 -3 5 0 8 8 7 7 -2 12 3 10
10 -1 8 2 11 7 8 12 -8 53 49 43 58 -4 4 -2 7 3 6 22 -5 26 1 11 15 -31 31
-131 203 -172 295 -68 154 -133 388 -134 478 0 32 12 42 26 21z m172 -102 c37
-45 8 -117 -48 -117 -29 0 -70 38 -70 65 0 7 9 24 21 39 22 29 78 36 97 13z
m3293 -131 c9 -19 6 -32 -14 -72 -51 -98 -49 -98 -117 -26 -33 34 -60 66 -60
71 0 4 28 11 62 15 34 3 71 13 82 21 29 19 35 18 47 -9z m287 -56 c2 -12 1
-38 -3 -56 -7 -38 -44 -64 -91 -64 -22 0 -25 3 -20 23 31 119 29 116 61 120
44 5 50 3 53 -23z m-599 -71 l28 -21 43 22 c51 26 63 18 49 -35 -11 -38 -10
-41 20 -65 43 -37 40 -50 -14 -50 -43 0 -45 -1 -64 -46 -12 -25 -26 -44 -33
-42 -6 2 -18 23 -25 45 -14 41 -16 42 -69 49 -66 8 -70 24 -13 56 40 22 40 23
34 65 -7 49 1 54 44 22z m-2686 -60 c19 -23 23 -80 7 -108 -5 -10 -23 -24 -40
-31 -39 -16 -80 0 -104 42 -16 26 -17 35 -6 69 9 26 22 42 39 48 36 14 83 5
104 -20z m-433 -79 c0 -5 -2 -10 -4 -10 -3 0 -8 5 -11 10 -3 6 -1 10 4 10 6 0
11 -4 11 -10z m1681 -51 c31 -16 168 -18 219 -3 25 8 46 14 47 14 1 0 5 -17 9
-37 4 -21 12 -41 18 -45 13 -9 -8 -26 -86 -68 -32 -17 -64 -40 -72 -52 -15
-21 -15 -21 -51 11 -20 17 -57 42 -83 55 -59 30 -79 51 -57 60 9 3 15 18 15
34 0 42 9 49 41 31z m-1752 -46 c2 -2 0 -3 -6 -3 -6 0 -21 9 -34 21 l-24 20
30 -17 c17 -10 32 -19 34 -21z m3139 -39 c33 -23 30 -75 -9 -119 -30 -34 -34
-35 -100 -35 -42 0 -69 4 -69 11 0 17 78 126 102 143 28 20 48 20 76 0z m541
-29 c49 -25 55 -72 15 -104 -15 -12 -32 -21 -38 -21 -13 0 -66 91 -66 113 0
28 46 35 89 12z m-2855 -88 c28 -46 29 -50 14 -75 -43 -71 -174 -85 -208 -22
-5 10 -7 26 -4 35 9 23 135 115 154 112 8 -1 28 -24 44 -50z m-797 -23 c7 -19
-23 -87 -54 -120 -35 -38 -53 -18 -53 61 0 34 3 65 7 68 3 4 26 7 50 7 30 0
45 -5 50 -16z m1967 -115 c-3 -5 -10 -7 -15 -3 -5 3 -7 10 -3 15 3 5 10 7 15
3 5 -3 7 -10 3 -15z m964 -31 c19 -19 14 -72 -8 -96 -27 -28 -36 -28 -65 4
-34 37 -31 56 13 82 44 25 44 26 60 10z m222 -11 c0 -2 -10 -12 -22 -23 l-23
-19 19 23 c18 21 26 27 26 19z m-2600 -52 c13 -14 21 -25 18 -25 -2 0 -15 11
-28 25 -13 14 -21 25 -18 25 2 0 15 -11 28 -25z m980 -5 c0 -5 -4 -10 -10 -10
-5 0 -10 5 -10 10 0 6 5 10 10 10 6 0 10 -4 10 -10z m634 -11 c-3 -5 -10 -7
-15 -3 -5 3 -7 10 -3 15 3 5 10 7 15 3 5 -3 7 -10 3 -15z m886 -23 c0 -2 -8
-10 -17 -17 -16 -13 -17 -12 -4 4 13 16 21 21 21 13z m-1080 -36 c0 -5 -4 -10
-10 -10 -5 0 -10 5 -10 10 0 6 5 10 10 10 6 0 10 -4 10 -10z m0 -186 c0 -8 -5
-12 -10 -9 -6 4 -8 11 -5 16 9 14 15 11 15 -7z m1713 -123 c10 -18 29 -32 47
-36 17 -4 30 -11 30 -17 0 -18 -63 -98 -78 -98 -25 0 -82 32 -93 52 -14 26 -5
60 27 97 32 39 45 39 67 2z m-133 -25 c0 -2 -8 -10 -17 -17 -16 -13 -17 -12
-4 4 13 16 21 21 21 13z m-1570 -26 c0 -5 -4 -10 -10 -10 -5 0 -10 5 -10 10 0
6 5 10 10 10 6 0 10 -4 10 -10z m-46 -36 c16 -41 9 -44 -81 -44 -99 0 -115 6
-106 38 5 21 11 22 93 22 71 0 89 -3 94 -16z m1281 -64 c10 -11 16 -20 13 -20
-3 0 -13 9 -23 20 -10 11 -16 20 -13 20 3 0 13 -9 23 -20z m-2914 -57 c13 -16
12 -17 -3 -4 -10 7 -18 15 -18 17 0 8 8 3 21 -13z m-295 -22 c-4 -6 -13 -11
-19 -11 -8 0 -7 3 2 9 8 5 10 14 6 22 -6 11 -5 11 5 2 7 -6 9 -16 6 -22z
m3494 -100 c16 -31 12 -58 -14 -88 l-24 -28 -48 54 c-27 30 -50 57 -52 62 -4
10 24 16 80 18 37 1 49 -3 58 -18z m-3262 -43 c18 -17 31 -35 30 -40 -2 -5
-25 -22 -51 -36 -54 -31 -76 -25 -91 27 -23 79 49 111 112 49z m789 0 c-3 -8
-6 -5 -6 6 -1 11 2 17 5 13 3 -3 4 -12 1 -19z m2723 -37 c0 -4 -12 -20 -26
-34 -20 -20 -27 -39 -31 -87 -7 -69 -13 -74 -99 -68 -47 3 -49 4 -52 36 -4 45
33 119 72 143 32 19 136 27 136 10z m-530 -53 c25 -28 26 -62 0 -88 -54 -54
-144 20 -97 81 26 34 69 37 97 7z m-2658 -5 c10 -9 18 -26 18 -38 0 -39 -78
-125 -113 -125 -17 0 -87 80 -87 99 0 6 9 11 20 11 27 0 70 22 94 49 23 25 43
27 68 4z m2085 -45 c-3 -8 -6 -5 -6 6 -1 11 2 17 5 13 3 -3 4 -12 1 -19z m766
-124 l38 -37 -37 -38 c-38 -39 -74 -51 -74 -25 0 7 -12 30 -26 51 l-25 38 28
23 c38 32 52 30 96 -12z m-2680 -44 c23 -41 26 -54 17 -65 -20 -24 -46 -17
-94 25 l-46 39 37 26 c21 14 42 25 48 25 5 0 23 -23 38 -50z m2149 38 c39 -32
19 -88 -31 -88 -34 0 -51 17 -51 52 0 41 48 62 82 36z m-2699 -39 c10 -24 24
-43 37 -46 28 -7 25 -20 -10 -38 -51 -27 -86 -20 -115 22 -14 21 -25 42 -25
48 0 11 68 54 86 55 6 0 18 -18 27 -41z m807 11 c18 -34 -4 -62 -48 -58 -30 2
-38 7 -40 26 -2 13 2 30 8 38 18 21 67 18 80 -6z"/>
<path d="M2071 2285 c-1 -26 21 -103 25 -90 2 6 -3 33 -10 60 -8 28 -15 41
-15 30z"/>
<path d="M1903 2105 c2 -24 6 -29 21 -27 11 2 37 -4 58 -14 37 -17 41 -17 69
0 17 10 39 16 49 13 20 -5 48 18 36 30 -3 3 -6 2 -6 -4 0 -19 -112 -30 -182
-18 -27 5 -38 13 -42 29 -2 12 -4 9 -3 -9z"/>
<path d="M1790 1988 c0 -4 4 -8 9 -8 5 0 26 -27 47 -60 21 -33 54 -71 74 -85
38 -26 56 -32 45 -15 -4 6 5 10 19 10 27 0 35 -15 14 -23 -7 -3 0 -6 15 -6 63
-2 142 51 177 120 10 19 26 41 34 48 9 8 16 17 16 22 0 4 -101 7 -225 7 -124
-1 -225 -5 -225 -10z m225 -33 c50 0 110 4 135 8 l45 8 -23 -23 c-21 -21 -33
-23 -145 -26 -122 -3 -165 6 -174 35 -3 9 6 10 34 5 21 -4 79 -7 128 -7z"/>
<path d="M450 1283 c-12 -16 -47 -80 -78 -143 -31 -63 -67 -132 -80 -154 l-24
-38 28 -29 c46 -48 60 -47 115 7 27 26 51 45 54 42 3 -3 -11 -33 -31 -67 l-37
-62 33 -35 c19 -18 41 -34 49 -34 18 1 153 108 251 199 61 56 64 61 48 77 -15
16 -23 11 -109 -65 -52 -44 -97 -81 -102 -81 -8 0 22 57 90 170 l33 55 -25 23
c-15 12 -30 22 -34 22 -15 0 -116 -83 -156 -129 -22 -24 -41 -39 -43 -33 -5
15 61 140 97 186 30 38 31 40 14 59 -10 10 -30 28 -45 38 l-26 19 -22 -27z"/>
<path d="M3374 1190 c-43 -39 -85 -81 -93 -95 -14 -23 -13 -26 56 -97 38 -40
96 -102 129 -138 32 -36 61 -66 65 -68 9 -4 199 177 199 189 0 4 -9 13 -20 19
-18 9 -27 4 -70 -40 -27 -27 -53 -50 -59 -50 -11 0 -81 82 -81 96 0 4 23 31
51 60 45 45 48 52 34 64 -14 12 -23 6 -70 -40 l-53 -53 -47 44 -47 45 57 53
c33 32 54 59 51 67 -9 23 -20 17 -102 -56z"/>
<path d="M862 843 c-17 -49 -53 -128 -81 -178 l-51 -90 27 -22 c15 -12 76 -48
136 -78 87 -46 111 -54 122 -45 8 7 15 16 15 20 0 5 -34 25 -75 45 -42 21 -78
41 -80 46 -6 9 56 139 67 139 4 0 36 -16 71 -35 71 -39 97 -44 97 -17 0 12
-24 29 -75 55 -41 20 -75 41 -75 46 0 5 6 24 14 42 7 19 16 42 20 52 5 17 13
15 82 -22 41 -23 77 -41 80 -41 2 0 4 9 4 20 0 12 -15 29 -38 44 -57 36 -200
106 -216 106 -8 0 -25 -34 -44 -87z"/>
<path d="M3075 907 c-39 -22 -40 -24 -40 -77 0 -30 4 -83 9 -117 11 -83 -3
-83 -94 4 l-71 66 -35 -16 c-19 -9 -37 -23 -40 -30 -12 -33 152 -337 182 -337
31 0 25 33 -19 99 -91 137 -115 208 -42 124 65 -74 174 -158 187 -145 7 7 4
45 -11 129 -11 66 -21 137 -21 158 1 38 3 35 56 -70 74 -149 76 -151 113 -135
57 23 57 31 -2 132 -30 51 -71 126 -91 166 -20 39 -38 72 -39 72 -1 0 -20 -11
-42 -23z"/>
<path d="M1423 688 c-16 -20 -40 -101 -74 -253 -17 -77 -33 -150 -36 -162 -4
-19 1 -22 50 -33 70 -14 200 -29 210 -23 4 2 7 15 7 28 0 19 -6 25 -32 29
-109 17 -108 16 -108 38 0 34 51 249 72 306 11 30 16 58 12 62 -17 17 -89 23
-101 8z"/>
<path d="M2460 649 c-62 -25 -101 -91 -102 -175 -1 -97 35 -167 108 -210 39
-23 53 -26 96 -21 62 8 112 40 135 87 27 54 24 162 -6 224 -43 86 -146 129
-231 95z m96 -36 c35 -36 66 -122 71 -203 5 -74 4 -79 -20 -104 -31 -31 -56
-33 -90 -6 -48 38 -95 237 -68 289 22 39 78 52 107 24z"/>
<path d="M1995 603 c-54 -10 -66 -15 -95 -39 -49 -42 -73 -99 -72 -170 1 -100
48 -180 127 -215 98 -45 235 7 235 88 0 34 -20 28 -60 -18 -28 -33 -42 -41
-71 -42 -44 -1 -86 24 -100 61 -6 15 -9 75 -7 133 3 121 15 144 75 155 46 9
77 -7 108 -56 26 -42 55 -53 55 -21 0 27 -41 83 -75 102 -32 18 -87 28 -120
22z"/>
<path d="M2772 590 c0 -14 2 -19 5 -12 2 6 2 18 0 25 -3 6 -5 1 -5 -13z"/>
<path d="M1752 580 c0 -14 2 -19 5 -12 2 6 2 18 0 25 -3 6 -5 1 -5 -13z"/>
</g>
</svg>
